<svg width="29" height="29" viewBox="0 0 29 29" fill="none" xmlns="http://www.w3.org/2000/svg">
<path d="M24.1179 4.09461L18.9345 2.36682C18.9345 3.62227 18.4358 4.8263 17.548 5.71404C16.6603 6.60177 15.4563 7.1005 14.2008 7.1005C12.9454 7.1005 11.7413 6.60177 10.8536 5.71404C9.96587 4.8263 9.46715 3.62227 9.46715 2.36682L4.28377 4.09461C3.74814 4.27307 3.29393 4.63711 3.00314 5.12104C2.71235 5.60498 2.60412 6.17692 2.69799 6.73364L3.38437 10.8401C3.42943 11.1181 3.57216 11.3709 3.7869 11.5531C4.00165 11.7353 4.27433 11.835 4.55596 11.8342H7.10031V23.6684C7.10031 24.9701 8.16539 26.0352 9.46715 26.0352H18.9345C19.5622 26.0352 20.1642 25.7858 20.6081 25.342C21.052 24.8981 21.3013 24.2961 21.3013 23.6684V11.8342H23.8457C24.1273 11.835 24.4 11.7353 24.6148 11.5531C24.8295 11.3709 24.9722 11.1181 25.0173 10.8401L25.7037 6.73364C25.7975 6.17692 25.6893 5.60498 25.3985 5.12104C25.1077 4.63711 24.6535 4.27307 24.1179 4.09461Z" stroke="white" stroke-width="2.36684" stroke-linecap="round" stroke-linejoin="round"/>
</svg>
