<svg width="29" height="29" viewBox="0 0 29 29" fill="none" xmlns="http://www.w3.org/2000/svg">
<path d="M15.1481 23.1949C15.4481 23.4199 15.7973 23.5704 16.1669 23.634C16.5365 23.6976 16.916 23.6724 17.2739 23.5606C17.6319 23.4488 17.9582 23.2535 18.2259 22.9908C18.4936 22.7282 18.695 22.4057 18.8136 22.0499C18.9322 21.6941 18.9646 21.3152 18.908 20.9445C18.8514 20.5737 18.7076 20.2217 18.4883 19.9175C18.269 19.6133 17.9806 19.3655 17.6467 19.1946C17.3129 19.0237 16.9433 18.9346 16.5682 18.9346H2.36719" stroke="white" stroke-width="2.36684" stroke-linecap="round" stroke-linejoin="round"/>
<path d="M20.7102 9.46723C21.0128 9.06379 21.4135 8.74439 21.8742 8.53936C22.335 8.33433 22.8405 8.25048 23.3427 8.29577C23.845 8.34106 24.3273 8.51398 24.744 8.79813C25.1606 9.08227 25.4977 9.4682 25.7232 9.91926C25.9488 10.3703 26.0553 10.8716 26.0326 11.3753C26.0099 11.8791 25.8589 12.3688 25.5937 12.7978C25.3286 13.2268 24.9582 13.5808 24.5177 13.8264C24.0773 14.072 23.5813 14.2009 23.077 14.2009H2.36719" stroke="white" stroke-width="2.36684" stroke-linecap="round" stroke-linejoin="round"/>
<path d="M11.5979 5.20689C11.8979 4.98187 12.2471 4.83137 12.6167 4.76779C12.9863 4.7042 13.3657 4.72936 13.7237 4.84118C14.0817 4.953 14.4079 5.14829 14.6756 5.41095C14.9433 5.6736 15.1448 5.99612 15.2633 6.3519C15.3819 6.70768 15.4143 7.08656 15.3577 7.4573C15.3012 7.82804 15.1573 8.18004 14.938 8.48428C14.7188 8.78852 14.4303 9.03629 14.0965 9.20719C13.7627 9.37808 13.393 9.4672 13.018 9.4672H2.36719" stroke="white" stroke-width="2.36684" stroke-linecap="round" stroke-linejoin="round"/>
</svg>
