<svg width="20" height="20" viewBox="0 0 20 20" fill="none" xmlns="http://www.w3.org/2000/svg">
<path d="M16.9832 2.88329L13.3332 1.66663C13.3332 2.55068 12.9821 3.39853 12.3569 4.02365C11.7318 4.64877 10.884 4.99996 9.99991 4.99996C9.11586 4.99996 8.26801 4.64877 7.64289 4.02365C7.01777 3.39853 6.66658 2.55068 6.66658 1.66663L3.01658 2.88329C2.6394 3.00895 2.31956 3.26531 2.11479 3.60608C1.91002 3.94685 1.83381 4.3496 1.89991 4.74163L2.38324 7.63329C2.41497 7.82905 2.51548 8.00708 2.6667 8.13539C2.81791 8.26369 3.00993 8.33386 3.20824 8.33329H4.99991V16.6666C4.99991 17.5833 5.74991 18.3333 6.66658 18.3333H13.3332C13.7753 18.3333 14.1992 18.1577 14.5118 17.8451C14.8243 17.5326 14.9999 17.1087 14.9999 16.6666V8.33329H16.7916C16.9899 8.33386 17.1819 8.26369 17.3331 8.13539C17.4843 8.00708 17.5848 7.82905 17.6166 7.63329L18.0999 4.74163C18.166 4.3496 18.0898 3.94685 17.885 3.60608C17.6803 3.26531 17.3604 3.00895 16.9832 2.88329Z" stroke="white" stroke-opacity="0.7" stroke-width="1.66667" stroke-linecap="round" stroke-linejoin="round"/>
</svg>
